<svg id="Layer_1" data-name="Layer 1" xmlns="http://www.w3.org/2000/svg" viewBox="0 0 1330 440"><defs><style>.cls-1{fill:#fff;}</style></defs><rect width="1330" height="440"/><rect class="cls-1" x="618.68" y="82.89" width="39.81" height="35.82"/><path class="cls-1" d="M111.76,178.89V152.12H73.81V388.81h39.56V287.58c41.06,43.53,170.54,45.86,174.49-53.76.66-16.68-5.19-37.79-14.24-49.14C233.48,134.33,148.54,140.9,111.76,178.89Zm68.13,110.85c-37.87,0-68.56-25.81-68.56-57.65s30.69-57.65,68.56-57.65,68.56,25.81,68.56,57.65S217.75,289.74,179.89,289.74Z"/><rect class="cls-1" x="318.37" y="71.19" width="39.81" height="239.77"/><path class="cls-1" d="M579.32,292.07c-.54-5.35-.63-11.3-.63-17.51V209.07c0-14.13-1.74-63.27-91.33-61-55.18,1.4-76.7,17.44-84.75,21.46l13.65,26.07C427.6,187.07,434.53,183.36,445,180c35.87-11.43,94.9-11.55,93.91,28.83V213c-35.65.34-70.28,1.8-91.87,6.45-48.76,10.5-56.7,28-56.7,52.26,0,14.12,10.51,41.53,63.47,43.39,20.53.73,65.56,1.87,88-27.36A132.15,132.15,0,0,0,545,311h38.73a13,13,0,0,1-1.16-2.29C580.13,301.56,579.85,297.42,579.32,292.07ZM538.86,258.7c-24.67,47.44-111.46,37.18-109.48,10.11.56-7.68,1.28-24,48.82-29.72,16.18-1.93,34.56-2.68,60.66-3.18Z"/><rect class="cls-1" x="618.86" y="152.12" width="39.81" height="158.84"/><path class="cls-1" d="M810.84,148c-44.46,0-65.68,19.65-75.51,33V152.12h-38V311h39.55V211.88c24.45-41.95,104.24-51.21,106,1.93.12,3.68.48,7.83.32,12.08V311h37.88v-93.1C881.13,165.34,851.78,148,810.84,148Z"/><path class="cls-1" d="M1080.8,172.61c-38.25-39-99.64-28.22-135.23-4.34-10.36,6.95-21.34,18.64-25.63,26.38-19.87,35.79-7.76,70.31-.78,82.92,12.94,23.38,53.52,47,64.82,55.31,15.69,11.56,25.55,18.38,25.55,18.38s-5.48-34.68,35.34-42.52c13.53-2.61,62-6.68,72.18-49.55a129.18,129.18,0,0,0,2.91-23.63V71.38H1080.8Zm-55,106.47c-29.56,4.26-36.08,26.86-36.08,26.86s-28.21-16.79-36.22-38.15C913.84,162,1078.09,149.86,1080.8,223.7,1081.82,251.32,1072.72,272.31,1025.83,279.08Z"/><path class="cls-1" d="M1197,186.52v-34.4h-38V311h39.55V217.61c4.85-11.59,14.47-37.4,77.55-33.59V150C1223.44,147.84,1207.78,171.65,1197,186.52Z"/></svg>