<svg id="Layer_1" data-name="Layer 1" xmlns="http://www.w3.org/2000/svg" viewBox="0 0 1000 1000"><defs><style>.cls-1{fill:#fff;}</style></defs><path class="cls-1" d="M933.58,422.73l-345.3-317c-48.55-48.55-128-48.55-176.56,0l-345.3,317c-48.56,48.56-48.56,128,0,176.56l345.3,295c48.55,48.55,128,48.55,176.56,0l345.3-295C982.14,550.74,982.14,471.29,933.58,422.73Zm-217.31,29.8c-6.51,61.2-41.8,101.86-94.92,128.28-22.59,11.24-46.79,19.2-70.15,28.92-28.81,12-55.61,27.16-77.47,49.94-17.25,18-30.24,38.37-36.56,62.73-2.2,8.51-7.65,11.24-15.14,7-55.17-31.24-91.8-76.6-95.23-141.24-.07-1.45,0-4.65,0-4.65V314.39s1.72-18.88,21.75-18.88c38,0,184.63-.77,222.33.37,42.67,1.29,81.55,13.29,111.23,46.47C710.31,373.87,720.68,411.05,716.27,452.53Z"/></svg>