<svg id="Layer_1" data-name="Layer 1" xmlns="http://www.w3.org/2000/svg" viewBox="0 0 2000 680"><rect x="1217.49" y="212.89" width="39.81" height="35.82"/><path d="M605.25,318.93,421.72,150.45a66.56,66.56,0,0,0-93.84,0L144.35,318.93a66.56,66.56,0,0,0,0,93.84L327.88,569.55a66.56,66.56,0,0,0,93.84,0L605.25,412.77A66.54,66.54,0,0,0,605.25,318.93Zm-115.5,15.84c-3.46,32.53-22.22,54.14-50.45,68.18-12,6-24.87,10.21-37.29,15.37-15.31,6.36-29.55,14.44-41.17,26.54-9.17,9.55-16.07,20.39-19.43,33.34-1.17,4.53-4.07,6-8.05,3.73-29.32-16.61-48.79-40.72-50.61-75.07,0-.77,0-2.47,0-2.47v-143s.91-10,11.56-10c20.2,0,98.13-.42,118.17.19,22.67.69,43.34,7.06,59.11,24.7C486.58,293,492.09,312.72,489.75,334.77Z"/><path d="M710.58,308.89V282.12h-38V518.81h39.55V417.58c41.06,43.53,170.55,45.86,174.49-53.76.66-16.68-5.19-37.79-14.23-49.14C832.29,264.33,747.35,270.9,710.58,308.89ZM778.7,419.74c-37.86,0-68.56-25.81-68.56-57.65s30.7-57.65,68.56-57.65,68.57,25.81,68.57,57.65S816.57,419.74,778.7,419.74Z"/><rect x="917.19" y="201.19" width="39.81" height="239.77"/><path d="M1178.13,422.07c-.54-5.35-.63-11.3-.63-17.51V339.07c0-14.13-1.74-63.27-91.33-61-55.18,1.4-76.7,17.44-84.75,21.46l13.65,26.07c11.35-8.54,18.27-12.25,28.7-15.57,35.87-11.43,94.89-11.55,93.91,28.83V343c-35.66.34-70.28,1.8-91.87,6.45-48.76,10.5-56.7,28-56.7,52.26,0,14.12,10.5,41.53,63.46,43.39,20.54.73,65.56,1.87,88-27.36a131.27,131.27,0,0,0,3.24,23.2h38.73a13.74,13.74,0,0,1-1.16-2.29C1178.94,431.56,1178.66,427.42,1178.13,422.07Zm-40.45-33.37c-24.68,47.44-111.47,37.18-109.49,10.11.57-7.68,1.29-24,48.82-29.72,16.19-1.93,34.56-2.68,60.67-3.18Z"/><rect x="1217.67" y="282.12" width="39.81" height="158.84"/><path d="M1409.65,278c-44.46,0-65.68,19.65-75.51,33V282.12h-38V441h39.56V341.88c24.44-41.95,104.23-51.21,106,1.93.12,3.68.48,7.83.32,12.08V441h37.88v-93.1C1479.94,295.34,1450.6,278,1409.65,278Z"/><path d="M1679.62,302.61c-38.25-39-99.65-28.22-135.24-4.34-10.35,7-21.34,18.64-25.63,26.38-19.86,35.79-7.75,70.31-.77,82.92,12.93,23.38,53.51,47,64.81,55.31,15.7,11.56,25.55,18.38,25.55,18.38s-5.47-34.68,35.35-42.52c13.52-2.61,62-6.68,72.18-49.55a129.69,129.69,0,0,0,2.9-23.63V201.38h-39.15Zm-55,106.47c-29.55,4.26-36.07,26.86-36.07,26.86s-28.21-16.79-36.22-38.15C1512.66,292,1676.9,279.86,1679.62,353.7,1680.64,381.32,1671.54,402.31,1624.64,409.08Z"/><path d="M1795.85,316.52v-34.4H1757.9V441h39.56V347.61c4.85-11.59,14.47-37.4,77.54-33.59V280C1822.25,277.84,1806.59,301.65,1795.85,316.52Z"/></svg>